# xmcd
#
# Track frame offsets:
#	150
#	16222
#	34412
#	53990
#	71685
#	86282
#	105707
#	126682
#	145980
#	163235
#	178035
#
# Disc length: 2638 seconds
#
# Revision: 1
# Processed by: cddbd v1.5.1PL0 Copyright (c) Steve Scherf et al.
# Submitted via: audiograbber 1.83.01
#
DISCID=a00a4c0b
DTITLE=Dirk Darmstaedter - Coming Up For Air
DYEAR=2005
DGENRE=Pop
TTITLE0=Coming Up For Air
TTITLE1=No Ordinary Girl
TTITLE2=Falling
TTITLE3=It Is What It Is
TTITLE4=My Girl In Paris
TTITLE5=Someday All Of This Will Make Sense, Somehow
TTITLE6=Birds Bugs And Animals
TTITLE7=Learn To Love What's Killing Me
TTITLE8=If You Knew What's Good For You
TTITLE9=Pennies
TTITLE10=Best Day
EXTD=
EXTT0=
EXTT1=
EXTT2=
EXTT3=
EXTT4=
EXTT5=
EXTT6=
EXTT7=
EXTT8=
EXTT9=
EXTT10=
PLAYORDER=
